<svg xmlns="http://www.w3.org/2000/svg" viewBox="0 0 508 508" shape-rendering="geometricPrecision" text-rendering="geometricPrecision" image-rendering="optimizeQuality" fill-rule="evenodd" clip-rule="evenodd"><defs><clipPath id="id0"><path d="M230 62c0-14 11-25 25-25s25 11 25 25v391c0 14-11 25-25 25s-25-11-25-25V62z"/></clipPath><style>.fil1{fill:#f39}</style></defs><g id="Слой_x0020_1"><path d="M204 4h102v88H204zm0 411h102v88H204z" fill="#fff" stroke="#4d4d4d" stroke-width="7.62" id="obj2"/><g clip-path="url(#id0)"><path class="fil1" d="M230 37h50v440h-50z"/><path id="1" d="M259 257c0-18-2-33-4-33s-4 15-4 33 2 33 4 33 4-15 4-33z" fill="#fff"/><path id="2" d="M257 257c0 12-1 22-2 22s-2-10-2-22 1-22 2-22 2 10 2 22zm4 0c0-30-3-55-6-55s-6 25-6 55 3 55 6 55 6-25 6-55z" fill="#ffe5f2"/><path id="3" d="M260 257c0 24-2 44-5 44s-5-20-5-44 2-44 5-44 5 20 5 44zm4 0c0-43-4-77-9-77s-9 35-9 77c0 43 4 77 9 77s9-35 9-77z" fill="#ffcde6"/><path id="4" d="M262 257c0 36-3 66-7 66s-7-30-7-66 3-66 7-66 7 30 7 66zm4 0c0-55-5-99-11-99s-11 44-11 99 5 99 11 99 11-44 11-99z" fill="#ffb6da"/><path id="5" d="M265 257c0 49-4 88-10 88-5 0-10-39-10-88s4-88 10-88c5 0 10 39 10 88zm4 0c0-67-6-121-14-121s-14 54-14 121 6 121 14 121 14-54 14-121z" fill="#ffa0cf"/><path id="6" d="M267 257c0 61-6 110-12 110-7 0-12-49-12-110s6-110 12-110c7 0 12 49 12 110zm4 0c0-79-7-143-16-143s-16 64-16 143 7 143 16 143 16-64 16-143z" fill="#ff8bc5"/><path id="7" d="M270 257c0 73-7 132-15 132s-15-59-15-132 7-132 15-132 15 59 15 132zm4 0c0-91-8-165-19-165-10 0-19 74-19 165s8 165 19 165c10 0 19-74 19-165z" fill="#ff75ba"/><path id="8" d="M272 257c0 85-8 154-17 154-10 0-17-69-17-154s8-154 17-154c10 0 17 69 17 154zm4 0c0-103-9-187-21-187s-21 84-21 187 9 187 21 187 21-84 21-187z" fill="#ff60af"/><path id="9" d="M275 257c0 97-9 176-20 176s-20-79-20-176 9-176 20-176 20 79 20 176zm4 0c0-116-11-209-24-209s-24 94-24 209c0 116 11 209 24 209s24-94 24-209z" fill="#ff49a4"/><path id="10" class="fil1" d="M277 257c0 109-10 198-22 198s-22-89-22-198 10-198 22-198 22 89 22 198zm2 0c0-122-11-220-25-220s-25 99-25 220c0 122 11 220 25 220s25-99 25-220z"/></g><path id="11" d="M230 62h0c0-14 11-25 25-25s25 11 25 25h0v391h0c0 14-11 25-25 25s-25-11-25-25h0V62z" fill="none" stroke="#f39" stroke-width="8.46"/></g></svg>